<?xml version="1.0" encoding="iso-8859-1"?>
<!-- Generator: Adobe Illustrator 19.0.0, SVG Export Plug-In . SVG Version: 6.00 Build 0)  -->
<svg version="1.1" id="Layer_1" xmlns="http://www.w3.org/2000/svg" xmlns:xlink="http://www.w3.org/1999/xlink" x="0px" y="0px"
	 viewBox="0 0 512 512" style="enable-background:new 0 0 512 512;" xml:space="preserve">
<polygon style="fill:#808080;" points="152.712,114.414 29.223,114.414 7.932,130.382 29.223,146.351 152.712,146.351 "/>
<rect x="299.62" y="208.099" style="fill:#EB6836;" width="42.582" height="80.906"/>
<rect x="299.62" y="208.099" style="fill:#C74B38;" width="42.582" height="28.743"/>
<path style="fill:#62C9CC;" d="M463.557,459.331h-65.219c-15.725,0-29.108-11.445-31.549-26.979l-42.601-271.097h129.876
	l41.043,261.182C498.15,441.813,483.171,459.331,463.557,459.331z"/>
<polygon style="fill:#50A9A9;" points="454.063,161.254 324.187,161.254 336.064,236.838 465.94,236.838 "/>
<path style="fill:#62C9CC;" d="M472.079,208.095H240.006V52.67h232.074c17.639,0,31.937,14.298,31.937,31.937v91.552
	C504.016,193.796,489.718,208.095,472.079,208.095z"/>
<path style="fill:#B2B2B2;" d="M263.426,208.095h-51.099c-35.276,0-63.873-28.597-63.873-63.873v-27.679
	c0-35.276,28.597-63.873,63.873-63.873h51.099V208.095z"/>
<rect x="261.296" y="52.674" style="fill:#F7D04A;" width="38.324" height="155.425"/>
<rect x="240.005" y="100.217" style="fill:#D4F2E8;" width="264.01" height="60.325"/>
<path style="fill:#CCCCCC;" d="M263.426,100.219H150.567c-1.373,5.211-2.113,10.681-2.113,16.323v27.678
	c0,5.643,0.74,11.112,2.113,16.323h112.859V100.219z"/>
<rect x="261.296" y="100.217" style="fill:#FEE7BE;" width="38.324" height="60.325"/>
<g>
	<polygon style="fill:#F7D04A;" points="469.788,261.323 407.817,261.323 411.945,289.001 474.137,289.001 	"/>
	<polygon style="fill:#F7D04A;" points="478.821,318.809 416.39,318.809 420.518,346.487 483.171,346.487 	"/>
	<polygon style="fill:#F7D04A;" points="487.855,376.295 424.962,376.295 429.089,403.974 492.205,403.974 	"/>
</g>
<path d="M512,176.158V84.606c0-22.013-17.908-39.921-39.921-39.921h-17.033c-4.409,0-7.984,3.575-7.984,7.984
	s3.575,7.984,7.984,7.984h17.033c13.208,0,23.953,10.745,23.953,23.953v91.552c0,13.208-10.745,23.953-23.953,23.953H307.605V60.654
	h104.859c4.409,0,7.984-3.575,7.984-7.984s-3.575-7.984-7.984-7.984H212.327c-36.189,0-66.2,26.895-71.132,61.744h-8.341
	c0.753-3.667-1.165-7.473-4.75-8.967c-4.072-1.696-8.744,0.228-10.441,4.299l-1.945,4.668h-12.671
	c0.753-3.667-1.165-7.473-4.75-8.967c-4.071-1.696-8.745,0.228-10.441,4.299l-1.945,4.668H73.24c0.753-3.667-1.165-7.473-4.75-8.967
	c-4.072-1.696-8.744,0.228-10.441,4.299l-1.945,4.668h-26.88c-1.728,0-3.409,0.56-4.791,1.597L3.142,123.995
	c-4.189,3.142-4.189,9.633,0,12.775l21.291,15.968c1.382,1.037,3.063,1.597,4.791,1.597h7.084c-0.753,3.667,1.165,7.473,4.75,8.967
	c4.021,1.676,8.768-0.283,10.441-4.299l1.945-4.668h12.672c-0.753,3.667,1.165,7.473,4.75,8.967
	c4.021,1.676,8.768-0.283,10.441-4.299l1.945-4.668h12.672c-0.753,3.667,1.165,7.473,4.75,8.967
	c4.021,1.676,8.768-0.283,10.441-4.299l1.945-4.668h28.138c4.932,34.849,34.943,61.744,71.132,61.744h79.31v72.922
	c0,4.409,3.575,7.984,7.984,7.984h37.813l2.788,17.74c0.693,4.413,5.037,7.452,9.421,6.596c4.158-0.811,7.011-4.892,6.353-9.074
	l-15.112-96.168h113.712l5.855,37.26h-52.634c-4.802,0-8.606,4.408-7.897,9.162l4.127,27.678c0.583,3.911,3.942,6.807,7.897,6.807
	h55.366l2.175,13.839h-53.095c-4.803,0-8.606,4.408-7.897,9.162l4.127,27.678c0.583,3.911,3.942,6.807,7.897,6.807h55.825
	l2.175,13.839h-53.556c-4.803,0-8.606,4.408-7.897,9.162l4.127,27.678c0.583,3.911,3.942,6.807,7.897,6.807h56.286l1.842,11.718
	c1.088,6.927-0.901,13.956-5.458,19.286c-4.557,5.329-11.192,8.386-18.204,8.386H398.34c-11.868,0-21.82-8.51-23.662-20.234
	l-10.649-67.767c-0.685-4.356-4.772-7.331-9.126-6.648c-4.356,0.685-7.333,4.77-6.648,9.126l10.649,67.768
	c3.071,19.54,19.656,33.723,39.437,33.723h65.219c11.687,0,22.745-5.094,30.34-13.976c7.595-8.882,10.911-20.597,9.097-32.142
	l-32.233-205.118h1.319C494.092,216.079,512,198.17,512,176.158z M418.826,281.017l-1.746-11.71h45.88l1.841,11.71H418.826z
	 M427.399,338.503l-1.746-11.71h46.341l1.841,11.71H427.399z M435.972,395.989l-1.746-11.71h46.801l1.841,11.71H435.972z
	 M291.637,200.111h-22.356V60.654h22.356V200.111z M21.239,130.382l10.646-7.984H49.45l-6.653,15.968H31.885L21.239,130.382z
	 M66.749,122.398h12.509l-6.653,15.968H60.096L66.749,122.398z M96.557,122.398h12.509l-6.653,15.968H89.903L96.557,122.398z
	 M126.364,122.398h14.105v15.968h-20.759L126.364,122.398z M212.327,200.111c-30.818,0-55.889-25.071-55.889-55.889v-27.679
	c0-30.818,25.071-55.889,55.889-55.889h40.985v23.42h-36.727c-4.409,0-7.984,3.575-7.984,7.984c0,4.409,3.575,7.984,7.984,7.984
	h36.727v22.356H205.94c-4.409,0-7.984,3.575-7.984,7.984c0,4.409,3.575,7.984,7.984,7.984h47.373v22.356h-36.727
	c-4.409,0-7.984,3.575-7.984,7.984s3.575,7.984,7.984,7.984h36.727v23.42H212.327z M307.605,281.017v-64.938h17.115l10.205,64.938
	H307.605z"/>
<path d="M280.459,104.301c4.409,0,7.984-3.575,7.984-7.984V87.8c0-4.409-3.575-7.984-7.984-7.984s-7.984,3.575-7.984,7.984v8.516
	C272.475,100.726,276.05,104.301,280.459,104.301z"/>
<path d="M280.459,142.625c4.409,0,7.984-3.575,7.984-7.984v-8.516c0-4.409-3.575-7.984-7.984-7.984s-7.984,3.575-7.984,7.984v8.516
	C272.475,139.05,276.05,142.625,280.459,142.625z"/>
<path d="M280.459,180.949c4.409,0,7.984-3.575,7.984-7.984v-8.516c0-4.409-3.575-7.984-7.984-7.984s-7.984,3.575-7.984,7.984v8.516
	C272.475,177.374,276.05,180.949,280.459,180.949z"/>
<g>
</g>
<g>
</g>
<g>
</g>
<g>
</g>
<g>
</g>
<g>
</g>
<g>
</g>
<g>
</g>
<g>
</g>
<g>
</g>
<g>
</g>
<g>
</g>
<g>
</g>
<g>
</g>
<g>
</g>
</svg>
