<?xml version="1.0" encoding="iso-8859-1"?>
<!-- Generator: Adobe Illustrator 19.0.0, SVG Export Plug-In . SVG Version: 6.00 Build 0)  -->
<svg version="1.1" id="Layer_1" xmlns="http://www.w3.org/2000/svg" xmlns:xlink="http://www.w3.org/1999/xlink" x="0px" y="0px"
	 viewBox="0 0 512 512" style="enable-background:new 0 0 512 512;" xml:space="preserve">
<path style="fill:#8AD5DD;" d="M256.24,111.36C70.16,111.36,0,256,0,256s69.76,144.64,255.76,144.64S512,256,512,256
	S442.24,111.36,256.24,111.36z"/>
<circle style="fill:#002833;" cx="256" cy="256" r="115.92"/>
<circle style="fill:#FF5F5F;" cx="256" cy="256" r="97.6"/>
<g>
	<path style="fill:#FFFFFF;" d="M183.2,241.6l4.64,17.76c1.04,3.92,1.92,7.52,2.56,11.12h0.24c0.8-3.52,1.92-7.28,3.12-11.04
		l5.68-17.84h5.36l5.44,17.44c1.28,4.16,2.32,7.84,3.12,11.36h0.24c0.56-3.52,1.52-7.2,2.64-11.28l4.96-17.52h6.24l-11.28,34.88
		h-5.76l-5.36-16.64c-1.2-3.92-2.24-7.36-3.12-11.44h-0.16c-0.88,4.16-1.92,7.76-3.2,11.52l-5.6,16.56h-5.76l-10.56-34.88
		L183.2,241.6L183.2,241.6z"/>
	<path style="fill:#FFFFFF;" d="M237.12,241.6l4.64,17.76c1.04,3.92,1.92,7.52,2.56,11.12h0.24c0.8-3.52,1.92-7.28,3.12-11.04
		l5.68-17.84h5.36l5.44,17.44c1.28,4.16,2.32,7.84,3.12,11.36h0.24c0.56-3.52,1.52-7.2,2.64-11.28l4.96-17.52h6.24l-11.28,34.88
		h-5.76l-5.36-16.64c-1.2-3.92-2.24-7.36-3.12-11.44h-0.16c-0.88,4.16-1.92,7.76-3.2,11.52l-5.6,16.56h-5.76l-10.56-34.88
		L237.12,241.6L237.12,241.6z"/>
	<path style="fill:#FFFFFF;" d="M291.04,241.6l4.64,17.76c1.04,3.92,1.92,7.52,2.56,11.12h0.24c0.8-3.52,1.92-7.28,3.12-11.04
		l5.68-17.84h5.36l5.44,17.44c1.28,4.16,2.32,7.84,3.12,11.36h0.24c0.56-3.52,1.52-7.2,2.64-11.28l4.96-17.52h6.24L324,276.48h-5.76
		l-5.36-16.64c-1.2-3.92-2.24-7.36-3.12-11.44h-0.16c-0.88,4.16-1.92,7.76-3.2,11.52l-5.6,16.56h-5.76l-10.56-34.88L291.04,241.6
		L291.04,241.6z"/>
</g>
<g>
</g>
<g>
</g>
<g>
</g>
<g>
</g>
<g>
</g>
<g>
</g>
<g>
</g>
<g>
</g>
<g>
</g>
<g>
</g>
<g>
</g>
<g>
</g>
<g>
</g>
<g>
</g>
<g>
</g>
</svg>
